<?xml version="1.0" encoding="UTF-8" standalone="no"?>
<!-- Created with Inkscape (http://www.inkscape.org/) -->

<svg
   width="172.86304mm"
   height="172.86455mm"
   viewBox="0 0 172.86304 172.86455"
   version="1.1"
   id="svg275"
   inkscape:version="1.1.1 (3bf5ae0d25, 2021-09-20)"
   sodipodi:docname="drawing.svg"
   xmlns:inkscape="http://www.inkscape.org/namespaces/inkscape"
   xmlns:sodipodi="http://sodipodi.sourceforge.net/DTD/sodipodi-0.dtd"
   xmlns="http://www.w3.org/2000/svg"
   xmlns:svg="http://www.w3.org/2000/svg">
  <sodipodi:namedview
     id="namedview277"
     pagecolor="#ffffff"
     bordercolor="#666666"
     borderopacity="1.0"
     inkscape:pageshadow="2"
     inkscape:pageopacity="0.0"
     inkscape:pagecheckerboard="0"
     inkscape:document-units="mm"
     showgrid="false"
     inkscape:zoom="0.74118967"
     inkscape:cx="328.52589"
     inkscape:cy="373.7235"
     inkscape:window-width="1920"
     inkscape:window-height="1018"
     inkscape:window-x="-6"
     inkscape:window-y="-6"
     inkscape:window-maximized="1"
     inkscape:current-layer="layer1" />
  <defs
     id="defs272" />
  <g
     inkscape:label="Layer 1"
     inkscape:groupmode="layer"
     id="layer1"
     transform="translate(-18.161026,-49.573944)">
    <path
       d="m 191.02339,140.01931 c -3.03583,12.57723 -9.08121,24.23019 -17.61702,33.95486 -6.20254,7.11341 -13.78585,12.89015 -22.28991,16.98308 -8.50371,4.09152 -17.75036,6.41209 -27.17906,6.8199 -6.86399,0.28801 -13.72376,-0.63941 -20.26531,-2.73816 -10.500788,-3.24252 -19.681123,-9.77582 -26.184229,-18.63513 -9.180335,-12.46152 -10.957985,-27.70399 -4.630208,-39.78628 2.441892,-4.89338 6.347178,-8.90341 11.173177,-11.4748 3.646311,-1.91135 7.84225,-2.50391 11.875911,-1.6757 0.480942,0.2136 1.000443,0.39137 1.521354,0.56501 1.718416,0.52367 3.230105,1.56958 4.325765,2.99311 1.09555,1.42212 1.72116,3.15158 1.78869,4.94594 -1.82591,-0.30041 -3.689002,-0.28387 -5.509335,0.0496 -4.30918,1.20164 -7.879644,4.2224 -9.778647,8.27229 -0.282497,0.60082 -0.522287,1.21955 -0.719349,1.85208 -0.104733,0.35416 -0.23289,0.70143 -0.385868,1.03766 -0.09371,0.18328 -0.166744,0.37621 -0.219107,0.57464 -1.295365,5.54391 -0.581519,11.36897 2.014678,16.43733 3.147448,6.0191 8.104364,10.90013 14.171788,13.95554 14.19931,7.4302 31.92639,5.46382 46.30208,-5.12763 8.5852,-6.43819 15.30174,-15.04527 19.45922,-24.93715 4.15749,-9.89295 5.606,-20.71335 4.19877,-31.35031 -2.04777,-19.085981 -11.22821,-36.695942 -25.70445,-49.300691 -6.57613,-5.621161 -13.91144,-10.287 -21.78967,-13.860286 h 65.44027 z M 105.122,49.574145 c 14.16227,2.676137 27.35545,9.075914 38.22347,18.538825 13.28985,11.575344 21.71912,27.742796 23.60154,45.26492 1.2857,9.56098 0.003,19.2913 -3.71792,28.19188 -3.72075,8.90199 -9.74408,16.65076 -17.45157,22.45254 -12.4587,9.18034 -27.70117,10.95552 -39.78275,4.63021 -4.89338,-2.44189 -8.904812,-6.34718 -11.476209,-11.17318 -1.907187,-3.65054 -2.501124,-7.84507 -1.679822,-11.88156 0.216351,-0.48094 0.398251,-1.00044 0.57464,-1.52135 0.101973,-0.35415 0.23151,-0.70005 0.385868,-1.03491 1.05283,-2.3647 3.052339,-4.17689 5.50933,-4.9911 0.713813,-0.113 1.438663,-0.15572 2.160763,-0.12678 -0.31419,1.84108 -0.29903,3.72216 0.0427,5.55625 1.20442,4.30777 4.22522,7.87682 8.2737,9.77583 0.59806,0.28387 1.21817,0.52366 1.85208,0.71656 0.35415,0.10611 0.70005,0.23702 1.03629,0.38862 0.18327,0.0937 0.3762,0.16812 0.57464,0.22324 5.5439,1.29536 11.36896,0.58014 16.4345,-2.01884 6.02192,-3.14607 10.90436,-8.10437 13.95554,-14.17461 7.4302,-14.17744 5.46664,-31.92075 -5.12093,-46.302086 -6.44101,-8.586611 -15.05091,-15.301736 -24.94668,-19.457811 -9.89435,-4.156074 -20.717575,-5.603169 -31.357353,-4.190647 -19.076111,2.049145 -36.674781,11.2268 -49.276001,25.697744 -6.12528,7.14516 -11.10968,15.19414 -14.7768,23.86083 V 49.573944 Z M 18.162286,138.18487 c 0.44097,-0.42168 0.74277,-0.96877 0.86402,-1.56683 2.65134,-14.24623 9.06745,-27.52231 18.58292,-38.449251 11.57958,-13.2842 27.74527,-21.709591 45.268444,-23.589191 9.560984,-1.285699 19.29271,-0.0028 28.1947,3.716514 8.90059,3.720747 16.65076,9.745485 22.4536,17.452974 9.18316,12.461524 10.95552,27.703994 4.63021,39.786274 -2.44327,4.89338 -6.34859,8.90341 -11.17459,11.47339 -3.64772,1.90998 -7.84225,2.50113 -11.87591,1.67708 -0.48094,-0.2136 -1.00323,-0.39826 -1.5434,-0.57052 v -0.001 c -0.3514,-0.10197 -0.69455,-0.23013 -1.02665,-0.3817 -2.36471,-1.05558 -4.17689,-3.05513 -4.99534,-5.51074 -0.11713,-0.72898 -0.15985,-1.46901 -0.12678,-2.20624 3.09231,0.49332 6.26181,-0.051 9.011,-1.55028 2.7492,-1.49931 4.92372,-3.86821 6.18314,-6.73594 0.28525,-0.59807 0.52779,-1.2168 0.72485,-1.85209 0.10474,-0.35277 0.23427,-0.69867 0.38587,-1.03353 0.091,-0.18328 0.16399,-0.37482 0.21911,-0.57051 1.29261,-5.54531 0.57877,-11.36897 -2.01606,-16.43733 -3.1502,-6.01909 -8.10683,-10.90013 -14.17461,-13.955534 -14.17743,-7.426325 -31.92074,-5.463822 -46.323244,5.148444 h 10e-4 c -9.86543,7.30779 -17.15382,17.55774 -20.81812,29.27491 -2.2848,7.21959 -3.31005,14.77821 -3.0317,22.34494 0.43959,10.27748 2.96552,20.35634 7.4235,29.62628 4.45664,9.26994 10.75408,17.53694 18.50566,24.29757 6.50981,5.65538 13.811958,10.32827 21.676432,13.86593 H 18.163556 Z m 172.861104,84.25039 h -85.26286 c -14.178491,-2.59899 -27.385786,-9.00007 -38.209364,-18.52084 -7.11341,-6.20112 -12.89297,-13.78444 -16.98554,-22.2885 -4.09152,-8.5037 -6.41209,-17.75177 -6.8199,-27.18047 -0.27147,-6.86258 0.65458,-13.72129 2.73815,-20.26532 3.24253,-10.50078 9.77583,-19.68112 18.63514,-26.18563 12.46152,-9.180339 27.701167,-10.952695 39.786274,-4.63021 4.89197,2.44464 8.90341,6.35 11.47763,11.17459 1.90718,3.65054 2.49837,7.84648 1.67294,11.88155 -0.2136,0.47819 -0.39137,0.99769 -0.56501,1.51585 -0.1254,0.40651 -0.27836,0.80476 -0.46027,1.19063 -0.63528,1.46346 -1.68257,2.7106 -3.01378,3.58845 -1.33255,0.87644 -2.8925,1.34634 -4.48698,1.35047 0.48369,-3.08818 -0.0675,-6.24946 -1.56958,-8.9916 -1.50068,-2.74228 -3.86821,-4.90855 -6.73171,-6.16408 -0.59806,-0.28526 -1.21817,-0.52504 -1.852078,-0.71935 -0.352778,-0.10611 -0.700052,-0.23703 -1.036285,-0.38862 -0.181903,-0.091 -0.372075,-0.16537 -0.567761,-0.21911 -5.545313,-1.28983 -11.367558,-0.57464 -16.434505,2.01884 -6.020505,3.14607 -10.901538,8.10295 -13.955535,14.17038 -7.43021,14.18131 -5.46382,31.92357 5.145616,46.31972 v 0.001 c 7.299325,9.86401 17.541169,17.15805 29.250218,20.83329 6.51122,2.06844 13.30642,3.10197 20.13867,3.06475 0.73448,0 1.47175,0 2.21312,-0.0345 10.27747,-0.4396 20.35915,-2.96552 29.63051,-7.42351 9.27135,-4.45946 17.53834,-10.7569 24.29898,-18.5113 5.17031,-5.93937 9.53064,-12.53737 12.96458,-19.62327 z"
       id="path137"
       style="stroke-width:0.352778" />
  </g>
</svg>
